<svg xmlns="http://www.w3.org/2000/svg" width="11.646" height="15" viewBox="0 0 11.646 15"><defs><style>.a{fill:#004af8;}</style></defs><g transform="translate(-51.8)"><path class="a" d="M63.121,2A3.586,3.586,0,0,0,61.293.567,10.112,10.112,0,0,0,57.623,0a8.467,8.467,0,0,0-4.469.97A3.042,3.042,0,0,0,52.125,2,2.293,2.293,0,0,0,51.8,3.165V10.56a2.359,2.359,0,0,0,2.353,2.353H54.4L52.909,15H54.6l.356-.579H60.29l.359.579h1.688l-1.489-2.09h.245a2.359,2.359,0,0,0,2.353-2.353V3.165A2.293,2.293,0,0,0,63.121,2ZM55.547,13.463l.117-.191h3.918l.117.191ZM57.592,1.092h.031a7.245,7.245,0,0,1,3.884.8,2.057,2.057,0,0,1,.676.662,1.192,1.192,0,0,1,.174.613V10.56a1.265,1.265,0,0,1-.371.9,1.246,1.246,0,0,1-.893.368H54.153a1.256,1.256,0,0,1-1.263-1.263V3.165a1.2,1.2,0,0,1,.174-.61,2.528,2.528,0,0,1,1.292-.97A8.888,8.888,0,0,1,57.592,1.092Z" transform="translate(0)"/><path class="a" d="M166.459,70.52h3.827a.66.66,0,1,0,0-1.32h-3.827a.66.66,0,0,0,0,1.32Z" transform="translate(-110.749 -67.227)"/><path class="a" d="M133.673,331.2a.773.773,0,1,0,.773.773A.775.775,0,0,0,133.673,331.2Z" transform="translate(-78.787 -321.755)"/><path class="a" d="M325.673,331.2a.773.773,0,1,0,.773.773A.775.775,0,0,0,325.673,331.2Z" transform="translate(-265.312 -321.755)"/><rect class="a" width="3.465" height="3.202" transform="translate(53.887 4.383)"/><rect class="a" width="3.602" height="3.202" transform="translate(57.757 4.383)"/></g></svg>