<svg xmlns="http://www.w3.org/2000/svg" width="13.65" height="15.015" viewBox="0 0 13.65 15.015"><defs><style>.a{fill:#004af8;}</style></defs><path class="a" d="M13.6,16.65H4.048A2.011,2.011,0,0,1,2,14.6V5.048A2.011,2.011,0,0,1,4.048,3H13.6A2.011,2.011,0,0,1,15.65,5.048V14.6A2.011,2.011,0,0,1,13.6,16.65ZM4.048,4.365a.645.645,0,0,0-.683.683V14.6a.645.645,0,0,0,.683.683H13.6a.645.645,0,0,0,.683-.683V5.048a.645.645,0,0,0-.683-.683Z" transform="translate(-2 -1.635)"/><path class="a" d="M15.683,5.1A.645.645,0,0,1,15,4.413V1.683a.683.683,0,0,1,1.365,0v2.73A.645.645,0,0,1,15.683,5.1Z" transform="translate(-6.127 -1)"/><path class="a" d="M7.683,5.1A.645.645,0,0,1,7,4.413V1.683A.645.645,0,0,1,7.683,1a.645.645,0,0,1,.683.683v2.73A.645.645,0,0,1,7.683,5.1Z" transform="translate(-3.587 -1)"/><path class="a" d="M14.968,10.365H2.683A.683.683,0,1,1,2.683,9H14.968a.683.683,0,0,1,0,1.365Z" transform="translate(-2 -3.54)"/></svg>