<svg xmlns="http://www.w3.org/2000/svg" width="14" height="14" viewBox="0 0 14 14"><defs><style>.a{fill:#004af8;}</style></defs><g transform="translate(-1 -1)"><path class="a" d="M8,15a7,7,0,1,1,7-7A6.98,6.98,0,0,1,8,15ZM8,2.273A5.727,5.727,0,1,0,13.727,8,5.7,5.7,0,0,0,8,2.273Z"/><path class="a" d="M14.182,11.364c-.127,0-.191,0-.255-.064l-2.545-1.273A.612.612,0,0,1,11,9.455V5.636a.636.636,0,0,1,1.273,0V9.073l2.164,1.082a.562.562,0,0,1,.255.827A.484.484,0,0,1,14.182,11.364Z" transform="translate(-3.636 -1.455)"/></g></svg>