<svg id="レイヤー_1" data-name="レイヤー 1" xmlns="http://www.w3.org/2000/svg" viewBox="0 0 380.39 149.41"><defs><style>.cls-1{fill:#5ad0ff;}.cls-2{fill:#004af8;}.cls-3{fill:none;}.cls-4{fill:#3246f0;}</style></defs><path class="cls-1" d="M35.94,138.71H20.7A1.31,1.31,0,0,0,19.39,140v2.24a7.17,7.17,0,0,0,7.14,7.15H30.1a7.17,7.17,0,0,0,7.15-7.15V140A1.31,1.31,0,0,0,35.94,138.71Z"/><path class="cls-1" d="M113.89,138.71H98.65A1.31,1.31,0,0,0,97.34,140v2.53a6.88,6.88,0,0,0,6.86,6.86h4.14a6.88,6.88,0,0,0,6.86-6.86V140A1.31,1.31,0,0,0,113.89,138.71Z"/><path class="cls-1" d="M37.71,11.17h4.7a1.3,1.3,0,0,0,1.31-1.3V3.66A3.67,3.67,0,0,0,39.33.07,3.78,3.78,0,0,0,36.4,3.82v6A1.31,1.31,0,0,0,37.71,11.17Z"/><path class="cls-1" d="M50.43,11.17h4.7a1.31,1.31,0,0,0,1.31-1.3V3.66A3.68,3.68,0,0,0,52,.07a3.77,3.77,0,0,0-2.92,3.75v6A1.3,1.3,0,0,0,50.43,11.17Z"/><path class="cls-1" d="M19.3,14.44h-18A1.33,1.33,0,0,0,0,15.93a10.41,10.41,0,0,0,20.6,0A1.33,1.33,0,0,0,19.3,14.44Z"/><path class="cls-2" d="M19.39,63.3a9.34,9.34,0,1,0,0-18.68V63.3Z"/><path class="cls-3" d="M20.68,94.76h0a9.34,9.34,0,0,0-1-18.58h0a9.34,9.34,0,0,1,1,18.58,9.1,9.1,0,0,1-1.29.1h0A9.1,9.1,0,0,0,20.68,94.76Z"/><path class="cls-3" d="M19.64,76.18Z"/><path class="cls-3" d="M47.5,30a5.12,5.12,0,0,0-5.13-5.13h0a5.13,5.13,0,1,1,0,10.25h0A5.12,5.12,0,0,0,47.5,30Z"/><path class="cls-3" d="M28.73,85.52a9.33,9.33,0,0,1-8,9.24h0a9.34,9.34,0,0,0-1-18.58h0A9.34,9.34,0,0,1,28.73,85.52Z"/><path class="cls-1" d="M20.58,94.77h0Z"/><path class="cls-1" d="M20.58,94.77l-.2,0Z"/><path class="cls-2" d="M28.73,85.52a9.34,9.34,0,0,0-9.09-9.34h-.25V94.86a9.1,9.1,0,0,0,1.29-.1A9.33,9.33,0,0,0,28.73,85.52Z"/><path class="cls-2" d="M19.6,76.18h0Z"/><path class="cls-3" d="M20.58,94.77l-.2,0Z"/><path class="cls-3" d="M42.37,35.1h0a5.13,5.13,0,1,0,0-10.25h0a5.13,5.13,0,0,0,0,10.25Z"/><path class="cls-2" d="M51.76,60.4h0a9.35,9.35,0,0,0,0,18.69h0Z"/><path class="cls-3" d="M20.58,94.77l-.2,0Z"/><path class="cls-3" d="M47.5,30a5.12,5.12,0,0,1-5.13,5.12h0a5.13,5.13,0,1,0,0-10.25h0A5.12,5.12,0,0,1,47.5,30Z"/><path class="cls-2" d="M37.27,30a5.13,5.13,0,1,0,5.13-5.13A5.13,5.13,0,0,0,37.27,30Z"/><path class="cls-1" d="M102.2,71.08H75a4.48,4.48,0,0,0-4.57,4.1,4.29,4.29,0,0,0,4.29,4.49h8.1a0,0,0,0,1,0,0V87.5c0,6.9-7,12.5-15.54,12.5S51.76,94.4,51.76,87.5V79.08h0a9.35,9.35,0,0,1,0-18.69h0V58.92h0V46.85a0,0,0,0,1,0,0H66.25c8.47,0,15.92-6.29,16.65-14.73A16.19,16.19,0,0,0,66.78,14.44H35.86A16.47,16.47,0,0,0,19.39,30.91V44.62a9.34,9.34,0,1,1,0,18.68v9.89h0v3h.25a9.34,9.34,0,0,1,1,18.58h-.1l-.2,0,.2,0h.1a9.1,9.1,0,0,1-1.29.1h0v39.27a1.31,1.31,0,0,0,1.31,1.31H35.94a1.31,1.31,0,0,0,1.31-1.31V120.74h0a55.21,55.21,0,0,0,30,8.55,55.34,55.34,0,0,0,30.05-8.52v13.36a1.31,1.31,0,0,0,1.31,1.31h15.24a1.31,1.31,0,0,0,1.31-1.31V90.78h0V84.08A13,13,0,0,0,102.2,71.08ZM37.25,30a5.12,5.12,0,0,1,5.12-5.13h0a5.13,5.13,0,1,1,0,10.25h0A5.12,5.12,0,0,1,37.25,30Z"/><path class="cls-4" d="M212.15,80.14H193.66a5,5,0,0,0,0,10h10.4a16,16,0,0,1-5.65,9.14,19.94,19.94,0,0,1-11.74,3.59A18.39,18.39,0,0,1,173.4,97.8c-2.51-2.42-5.91-7.17-5.91-15.15,0-6.72,2.59-12.46,6-15.77a20.19,20.19,0,0,1,13.8-5.29,19.54,19.54,0,0,1,8.43,1.88,16.23,16.23,0,0,1,4.5,3.47,5.63,5.63,0,0,0,6.85,1.26l.12-.07a5.55,5.55,0,0,0,1.41-8.7,26.26,26.26,0,0,0-7-5.28A29,29,0,0,0,187.83,51c-11.56,0-19.09,4.57-23.57,9.14-3.59,3.59-8.79,10.67-8.79,22.23,0,13.45,6.82,21,8.88,23,6.54,6.54,14.25,8.06,21.69,8.06s15.06-1.7,21.24-7.88a35.7,35.7,0,0,0,8.57-21.36A3.71,3.71,0,0,0,212.15,80.14Z"/><path class="cls-4" d="M286.06,72.07c-4.66,0-10,1-14.61,5.47-2.78,2.78-5.92,7.53-5.92,15.24,0,6.09,1.79,11.11,6.1,15.15,3.85,3.67,8.6,5.47,14.87,5.47,7,0,11.51-2.45,14.44-5.21a4.71,4.71,0,0,0-2.52-8h0a4.65,4.65,0,0,0-4.2,1.39,10.11,10.11,0,0,1-7.72,3.26,9.22,9.22,0,0,1-7.79-3.67,11.46,11.46,0,0,1-1.89-6.55h25a3.89,3.89,0,0,0,3.88-4.26c-.36-3.64-1.43-8.75-4.49-11.87C298.51,75.21,293.94,72.07,286.06,72.07Zm-8.88,15.51a9.31,9.31,0,0,1,18.38,0Z"/><path class="cls-4" d="M371.52,55a4.33,4.33,0,0,1,3.94-2h.06a4.85,4.85,0,0,0,4.87-4.86h0a4.68,4.68,0,0,0-4-4.67,16.28,16.28,0,0,0-2.26-.15,14.49,14.49,0,0,0-9.59,3.23c-4.84,4-5.11,10.13-5.11,13.71V73.33a5.1,5.1,0,0,0-5.09,5.09,4.24,4.24,0,0,0,4.23,4.23h.86V108a4.13,4.13,0,0,0,4.12,4.12h2.69a4.12,4.12,0,0,0,4.12-4.12V82.65h5.92a4.11,4.11,0,0,0,4.12-4.12V77.45a4.12,4.12,0,0,0-4.12-4.12h-5.92V61.68C370.35,58.45,370.62,56.39,371.52,55Z"/><path class="cls-4" d="M340.26,43.45A16.18,16.18,0,0,0,338,43.3a14.49,14.49,0,0,0-9.59,3.23c-4.84,4-5.11,10.13-5.11,13.71V73.33a5.1,5.1,0,0,0-5.09,5.09,4.24,4.24,0,0,0,4.23,4.23h.86V108a4.13,4.13,0,0,0,4.12,4.12h2.69a4.13,4.13,0,0,0,4.13-4.12V82.65h5.91a4.12,4.12,0,0,0,4.13-4.12V77.45a4.13,4.13,0,0,0-4.13-4.12h-5.91V61.68c0-3.23.27-5.29,1.16-6.73a4.34,4.34,0,0,1,4-2h0a4.86,4.86,0,0,0,4.88-4.86h0A4.69,4.69,0,0,0,340.26,43.45Z"/><path class="cls-4" d="M254.38,73.08a4.14,4.14,0,0,0-2-.51s-.86.05-1.28.13c-7.85,1.07-10.07,6.59-10.07,6.59a5.61,5.61,0,0,0-5.47-6h0a5.46,5.46,0,0,0-5.46,5.47v27.87a5.46,5.46,0,0,0,5.46,5.47h0a5.47,5.47,0,0,0,5.47-5.47V93.5c0-2.69.09-5.52,2.15-8.12a8.92,8.92,0,0,1,7.26-3.13,12.31,12.31,0,0,1,1.25,0,4.18,4.18,0,0,0,1.84-.26,4.81,4.81,0,0,0,.81-9Z"/><path class="cls-4" d="M252.61,37.88l-2.29-1.94a.27.27,0,0,0-.2-.07H240a.63.63,0,0,0-.51.27,28.3,28.3,0,0,1-6.19,6.59.62.62,0,0,0,.07,1l2.48,1.5a1.08,1.08,0,0,0,.44.16c.19,0,.35-.11.65-.33a32.33,32.33,0,0,0,5.42-5.64l5.21,0A24.51,24.51,0,0,1,233.74,52a.61.61,0,0,0-.16,1.06L236.06,55a.73.73,0,0,0,.47.21,2,2,0,0,0,.68-.21h0c7.72-3.55,12.14-8.59,15.57-16a1.35,1.35,0,0,0,.16-.54C253,38.26,252.85,38.09,252.61,37.88Z"/><path class="cls-4" d="M254.3,30.79l-.27,0-1.39,1,0,.24c1.06,1.14,1.75,1.76,2.67,2.84h.27l1.42-1,0-.27C256,32.63,255.31,31.78,254.3,30.79Z"/><path class="cls-4" d="M251.84,32.56l-.27,0-1.39,1,0,.24c1.06,1.14,1.74,1.77,2.67,2.84h.27l1.42-1,0-.27C253.53,34.41,252.85,33.55,251.84,32.56Z"/><path class="cls-4" d="M279.87,38.33a30.57,30.57,0,0,1-12.89,10V35l-.21-.22h-3.9l-.22.19V49.13l-.14,2.59,2.16,1.94c.19.16.3.24.46.24a1.42,1.42,0,0,0,.57-.13C273,51,278.21,47.31,282.22,42.32a.86.86,0,0,0,.22-.52,1,1,0,0,0-.17-.46l-1.36-2.9A.62.62,0,0,0,279.87,38.33Z"/><path class="cls-4" d="M307,34.69H292.64l-4.14-.08-.22.19v3.76l.24.16,4.17-.08h9.24a16,16,0,0,1-3.43,7.11c-2.07,2.49-4.8,4.29-8.88,5.77a.62.62,0,0,0-.18,1.06l2.46,2c.27.21.41.3.57.3a1.33,1.33,0,0,0,.52-.17c4.15-1.82,7.22-3.89,9.38-6.65a23.27,23.27,0,0,0,4.85-13.16Z"/></svg>