<svg xmlns="http://www.w3.org/2000/svg" width="16.65" height="16.65" viewBox="0 0 16.65 16.65"><defs><style>.a{fill:#004af8;}</style></defs><g transform="translate(-2 -2)"><path class="a" d="M18.163,18.65h-3.33a.833.833,0,1,1,0-1.665h3.33A.787.787,0,0,0,19,16.153V4.5a.787.787,0,0,0-.833-.833h-3.33A.787.787,0,0,1,14,2.833.787.787,0,0,1,14.833,2h3.33a2.453,2.453,0,0,1,2.5,2.5V16.153A2.453,2.453,0,0,1,18.163,18.65Z" transform="translate(-2.01)"/><path class="a" d="M9.833,15.99a.756.756,0,0,1-.583-.25.8.8,0,0,1,0-1.166L12.83,11,9.25,7.415A.824.824,0,0,1,10.415,6.25l4.163,4.163a.8.8,0,0,1,0,1.166L10.415,15.74A.756.756,0,0,1,9.833,15.99Z" transform="translate(-1.172 -0.67)"/><path class="a" d="M12.823,12.665H2.833a.833.833,0,0,1,0-1.665h9.99a.833.833,0,0,1,0,1.665Z" transform="translate(0 -1.507)"/></g></svg>