<svg xmlns="http://www.w3.org/2000/svg" width="17.557" height="16.65" viewBox="0 0 17.557 16.65"><defs><style>.a{fill:#004af8;}</style></defs><path class="a" d="M14.672,17.718a.717.717,0,0,1-.4-.08L9.741,15.252,5.208,17.638a.883.883,0,0,1-.875-.08.756.756,0,0,1-.318-.8l.875-5.09-3.659-3.5a.807.807,0,0,1-.239-.8.771.771,0,0,1,.636-.557l5.09-.716L9.025,1.493a.822.822,0,0,1,1.432,0l2.307,4.613,5.09.716c.239,0,.477.239.636.557a.72.72,0,0,1-.239.8l-3.659,3.579.875,5.09a.756.756,0,0,1-.318.8A1.009,1.009,0,0,1,14.672,17.718ZM3.458,8.174l2.784,2.784a.723.723,0,0,1,.318.636l-.636,3.9,3.5-1.829a.6.6,0,0,1,.716,0l3.5,1.829-.716-3.9a.8.8,0,0,1,.239-.716l2.784-2.784-3.9-.557c-.239,0-.477-.239-.636-.4l-1.67-3.5-1.75,3.5a.6.6,0,0,1-.557.4Z" transform="translate(-0.963 -1.075)"/></svg>